<?xml version="1.0" encoding="UTF-8" standalone="no"?>
<!DOCTYPE svg PUBLIC "-//W3C//DTD SVG 1.1//EN"
 "http://www.w3.org/Graphics/SVG/1.1/DTD/svg11.dtd">
<!-- Generated by graphviz version 7.1.0 (20230121.1956)
 -->
<!-- Title: Model Pages: 1 -->
<svg width="271pt" height="587pt"
 viewBox="0.00 0.00 270.50 587.00" xmlns="http://www.w3.org/2000/svg" xmlns:xlink="http://www.w3.org/1999/xlink">
<g id="graph0" class="graph" transform="scale(1 1) rotate(0) translate(4 583)">
<title>Model</title>
<polygon fill="white" stroke="none" points="-4,4 -4,-583 266.5,-583 266.5,4 -4,4"/>
<!-- node0 -->
<g id="node1" class="node">
<title>node0</title>
<path fill="none" stroke="none" d="M52.5,-579C52.5,-579 22.5,-579 22.5,-579 16.5,-579 10.5,-573 10.5,-567 10.5,-567 10.5,-555 10.5,-555 10.5,-549 16.5,-543 22.5,-543 22.5,-543 52.5,-543 52.5,-543 58.5,-543 64.5,-549 64.5,-555 64.5,-555 64.5,-567 64.5,-567 64.5,-573 58.5,-579 52.5,-579"/>
<text text-anchor="middle" x="37.5" y="-558.8" font-family="Times New Roman,serif" font-size="9.00" fill="#000000">4</text>
</g>
<!-- node1 -->
<g id="node2" class="node">
<title>node1</title>
<path fill="#000000" stroke="black" d="M63,-498C63,-498 12,-498 12,-498 6,-498 0,-492 0,-486 0,-486 0,-474 0,-474 0,-468 6,-462 12,-462 12,-462 63,-462 63,-462 69,-462 75,-468 75,-474 75,-474 75,-486 75,-486 75,-492 69,-498 63,-498"/>
<text text-anchor="middle" x="37.5" y="-478.1" font-family="Times New Roman,serif" font-size="8.00" fill="#ffffff">DiscreteUniform</text>
</g>
<!-- node0&#45;&gt;node1 -->
<g id="edge1" class="edge">
<title>node0&#45;&gt;node1</title>
<path fill="none" stroke="black" d="M37.5,-543.25C37.5,-533.43 37.5,-520.77 37.5,-509.44"/>
<polygon fill="black" stroke="black" points="41,-509.79 37.5,-499.79 34,-509.79 41,-509.79"/>
<text text-anchor="middle" x="44" y="-518.6" font-family="Times New Roman,serif" font-size="8.00" fill="#d3d3d3">size</text>
</g>
<!-- node2 -->
<g id="node3" class="node">
<title>node2</title>
<path fill="none" stroke="black" d="M52.5,-425C52.5,-425 22.5,-425 22.5,-425 16.5,-425 10.5,-419 10.5,-413 10.5,-413 10.5,-401 10.5,-401 10.5,-395 16.5,-389 22.5,-389 22.5,-389 52.5,-389 52.5,-389 58.5,-389 64.5,-395 64.5,-401 64.5,-401 64.5,-413 64.5,-413 64.5,-419 58.5,-425 52.5,-425"/>
<text text-anchor="middle" x="37.5" y="-404.5" font-family="Times New Roman,serif" font-size="10.00" fill="#0000ff">vint2</text>
</g>
<!-- node1&#45;&gt;node2 -->
<g id="edge2" class="edge">
<title>node1&#45;&gt;node2</title>
<path fill="none" stroke="black" d="M37.5,-461.81C37.5,-454.23 37.5,-445.1 37.5,-436.54"/>
<polygon fill="black" stroke="black" points="41,-436.54 37.5,-426.54 34,-436.54 41,-436.54"/>
</g>
<!-- node4 -->
<g id="node5" class="node">
<title>node4</title>
<path fill="#000000" stroke="black" d="M124.5,-344C124.5,-344 94.5,-344 94.5,-344 88.5,-344 82.5,-338 82.5,-332 82.5,-332 82.5,-320 82.5,-320 82.5,-314 88.5,-308 94.5,-308 94.5,-308 124.5,-308 124.5,-308 130.5,-308 136.5,-314 136.5,-320 136.5,-320 136.5,-332 136.5,-332 136.5,-338 130.5,-344 124.5,-344"/>
<text text-anchor="middle" x="109.5" y="-324.1" font-family="Times New Roman,serif" font-size="8.00" fill="#ffffff">Substring</text>
</g>
<!-- node2&#45;&gt;node4 -->
<g id="edge4" class="edge">
<title>node2&#45;&gt;node4</title>
<path fill="none" stroke="black" d="M53.12,-388.86C62.77,-378.27 75.34,-364.48 86.16,-352.61"/>
<polygon fill="black" stroke="black" points="88.49,-355.25 92.64,-345.5 83.32,-350.53 88.49,-355.25"/>
<text text-anchor="middle" x="84.5" y="-364.6" font-family="Times New Roman,serif" font-size="8.00" fill="#d3d3d3">start</text>
</g>
<!-- node3 -->
<g id="node4" class="node">
<title>node3</title>
<path fill="none" stroke="none" d="M124.5,-425C124.5,-425 94.5,-425 94.5,-425 88.5,-425 82.5,-419 82.5,-413 82.5,-413 82.5,-401 82.5,-401 82.5,-395 88.5,-389 94.5,-389 94.5,-389 124.5,-389 124.5,-389 130.5,-389 136.5,-395 136.5,-401 136.5,-401 136.5,-413 136.5,-413 136.5,-419 130.5,-425 124.5,-425"/>
<text text-anchor="middle" x="109.5" y="-404.8" font-family="Times New Roman,serif" font-size="9.00" fill="#000000">vString1</text>
</g>
<!-- node3&#45;&gt;node4 -->
<g id="edge3" class="edge">
<title>node3&#45;&gt;node4</title>
<path fill="none" stroke="black" d="M109.5,-389.25C109.5,-379.43 109.5,-366.77 109.5,-355.44"/>
<polygon fill="black" stroke="black" points="113,-355.79 109.5,-345.79 106,-355.79 113,-355.79"/>
<text text-anchor="middle" x="114.5" y="-364.6" font-family="Times New Roman,serif" font-size="8.00" fill="#d3d3d3">str</text>
</g>
<!-- node6 -->
<g id="node7" class="node">
<title>node6</title>
<path fill="none" stroke="black" d="M138.5,-271C138.5,-271 80.5,-271 80.5,-271 74.5,-271 68.5,-265 68.5,-259 68.5,-259 68.5,-247 68.5,-247 68.5,-241 74.5,-235 80.5,-235 80.5,-235 138.5,-235 138.5,-235 144.5,-235 150.5,-241 150.5,-247 150.5,-247 150.5,-259 150.5,-259 150.5,-265 144.5,-271 138.5,-271"/>
<text text-anchor="middle" x="109.5" y="-250.5" font-family="Times New Roman,serif" font-size="10.00" fill="#0000ff">vString2[index0]</text>
</g>
<!-- node4&#45;&gt;node6 -->
<g id="edge6" class="edge">
<title>node4&#45;&gt;node6</title>
<path fill="none" stroke="black" d="M109.5,-307.81C109.5,-300.23 109.5,-291.1 109.5,-282.54"/>
<polygon fill="black" stroke="black" points="113,-282.54 109.5,-272.54 106,-282.54 113,-282.54"/>
</g>
<!-- node5 -->
<g id="node6" class="node">
<title>node5</title>
<path fill="none" stroke="none" d="M196.5,-425C196.5,-425 166.5,-425 166.5,-425 160.5,-425 154.5,-419 154.5,-413 154.5,-413 154.5,-401 154.5,-401 154.5,-395 160.5,-389 166.5,-389 166.5,-389 196.5,-389 196.5,-389 202.5,-389 208.5,-395 208.5,-401 208.5,-401 208.5,-413 208.5,-413 208.5,-419 202.5,-425 196.5,-425"/>
<text text-anchor="middle" x="181.5" y="-404.8" font-family="Times New Roman,serif" font-size="9.00" fill="#000000">2</text>
</g>
<!-- node5&#45;&gt;node4 -->
<g id="edge5" class="edge">
<title>node5&#45;&gt;node4</title>
<path fill="none" stroke="black" d="M166.23,-389.25C156.53,-378.6 143.79,-364.62 132.83,-352.6"/>
<polygon fill="black" stroke="black" points="135.59,-350.43 126.26,-345.39 130.41,-355.14 135.59,-350.43"/>
<text text-anchor="middle" x="158.5" y="-364.6" font-family="Times New Roman,serif" font-size="8.00" fill="#d3d3d3">length</text>
</g>
<!-- node7 -->
<g id="node8" class="node">
<title>node7</title>
<path fill="#000000" stroke="black" d="M167.5,-190C167.5,-190 137.5,-190 137.5,-190 131.5,-190 125.5,-184 125.5,-178 125.5,-178 125.5,-166 125.5,-166 125.5,-160 131.5,-154 137.5,-154 137.5,-154 167.5,-154 167.5,-154 173.5,-154 179.5,-160 179.5,-166 179.5,-166 179.5,-178 179.5,-178 179.5,-184 173.5,-190 167.5,-190"/>
<text text-anchor="middle" x="152.5" y="-170.1" font-family="Times New Roman,serif" font-size="8.00" fill="#ffffff">Equal</text>
</g>
<!-- node6&#45;&gt;node7 -->
<g id="edge7" class="edge">
<title>node6&#45;&gt;node7</title>
<path fill="none" stroke="black" d="M118.83,-234.86C124.31,-224.78 131.37,-211.81 137.61,-200.35"/>
<polygon fill="black" stroke="black" points="140.61,-202.17 142.32,-191.71 134.46,-198.82 140.61,-202.17"/>
<text text-anchor="middle" x="138.5" y="-210.6" font-family="Times New Roman,serif" font-size="8.00" fill="#d3d3d3">str1</text>
</g>
<!-- node9 -->
<g id="node10" class="node">
<title>node9</title>
<path fill="none" stroke="black" d="M178.5,-117C178.5,-117 126.5,-117 126.5,-117 120.5,-117 114.5,-111 114.5,-105 114.5,-105 114.5,-93 114.5,-93 114.5,-87 120.5,-81 126.5,-81 126.5,-81 178.5,-81 178.5,-81 184.5,-81 190.5,-87 190.5,-93 190.5,-93 190.5,-105 190.5,-105 190.5,-111 184.5,-117 178.5,-117"/>
<text text-anchor="middle" x="152.5" y="-96.5" font-family="Times New Roman,serif" font-size="10.00" fill="#0000ff">vbool0[index0]</text>
</g>
<!-- node7&#45;&gt;node9 -->
<g id="edge9" class="edge">
<title>node7&#45;&gt;node9</title>
<path fill="none" stroke="black" d="M152.5,-153.81C152.5,-146.23 152.5,-137.1 152.5,-128.54"/>
<polygon fill="black" stroke="black" points="156,-128.54 152.5,-118.54 149,-128.54 156,-128.54"/>
</g>
<!-- node8 -->
<g id="node9" class="node">
<title>node8</title>
<path fill="none" stroke="none" d="M210.5,-271C210.5,-271 180.5,-271 180.5,-271 174.5,-271 168.5,-265 168.5,-259 168.5,-259 168.5,-247 168.5,-247 168.5,-241 174.5,-235 180.5,-235 180.5,-235 210.5,-235 210.5,-235 216.5,-235 222.5,-241 222.5,-247 222.5,-247 222.5,-259 222.5,-259 222.5,-265 216.5,-271 210.5,-271"/>
<text text-anchor="middle" x="195.5" y="-250.8" font-family="Times New Roman,serif" font-size="9.00" fill="#000000">motif</text>
</g>
<!-- node8&#45;&gt;node7 -->
<g id="edge8" class="edge">
<title>node8&#45;&gt;node7</title>
<path fill="none" stroke="black" d="M186.38,-235.25C180.87,-225.12 173.71,-211.97 167.4,-200.37"/>
<polygon fill="black" stroke="black" points="170.48,-198.72 162.63,-191.61 164.33,-202.06 170.48,-198.72"/>
<text text-anchor="middle" x="181.5" y="-210.6" font-family="Times New Roman,serif" font-size="8.00" fill="#d3d3d3">str2</text>
</g>
<!-- node11 -->
<g id="node12" class="node">
<title>node11</title>
<path fill="#000000" stroke="black" d="M208.5,-36C208.5,-36 178.5,-36 178.5,-36 172.5,-36 166.5,-30 166.5,-24 166.5,-24 166.5,-12 166.5,-12 166.5,-6 172.5,0 178.5,0 178.5,0 208.5,0 208.5,0 214.5,0 220.5,-6 220.5,-12 220.5,-12 220.5,-24 220.5,-24 220.5,-30 214.5,-36 208.5,-36"/>
<text text-anchor="middle" x="193.5" y="-16.1" font-family="Times New Roman,serif" font-size="8.00" fill="#ffffff">Equal</text>
</g>
<!-- node9&#45;&gt;node11 -->
<g id="edge11" class="edge">
<title>node9&#45;&gt;node11</title>
<path fill="none" stroke="black" d="M161.4,-80.86C166.63,-70.78 173.36,-57.81 179.3,-46.35"/>
<polygon fill="black" stroke="black" points="182.28,-48.21 183.78,-37.72 176.07,-44.99 182.28,-48.21"/>
<text text-anchor="middle" x="176.5" y="-56.6" font-family="Times New Roman,serif" font-size="8.00" fill="#d3d3d3">B</text>
</g>
<!-- node10 -->
<g id="node11" class="node">
<title>node10</title>
<path fill="none" stroke="none" d="M250.5,-117C250.5,-117 220.5,-117 220.5,-117 214.5,-117 208.5,-111 208.5,-105 208.5,-105 208.5,-93 208.5,-93 208.5,-87 214.5,-81 220.5,-81 220.5,-81 250.5,-81 250.5,-81 256.5,-81 262.5,-87 262.5,-93 262.5,-93 262.5,-105 262.5,-105 262.5,-111 256.5,-117 250.5,-117"/>
<text text-anchor="middle" x="235.5" y="-96.8" font-family="Times New Roman,serif" font-size="9.00" fill="#000000">True</text>
</g>
<!-- node10&#45;&gt;node11 -->
<g id="edge10" class="edge">
<title>node10&#45;&gt;node11</title>
<path fill="none" stroke="black" d="M226.59,-81.25C221.21,-71.12 214.22,-57.97 208.05,-46.37"/>
<polygon fill="black" stroke="black" points="211.18,-44.8 203.4,-37.61 205,-48.08 211.18,-44.8"/>
<text text-anchor="middle" x="219" y="-56.6" font-family="Times New Roman,serif" font-size="8.00" fill="#d3d3d3">A</text>
</g>
</g>
</svg>
